<?xml version="1.0" standalone="no"?><!DOCTYPE svg PUBLIC "-//W3C//DTD SVG 1.1//EN" "http://www.w3.org/Graphics/SVG/1.1/DTD/svg11.dtd"><svg t="1525320284746" class="icon" style="" viewBox="0 0 1024 1024" version="1.1" xmlns="http://www.w3.org/2000/svg" p-id="1259" xmlns:xlink="http://www.w3.org/1999/xlink" width="200" height="200"><defs><style type="text/css"></style></defs><path d="M896.820947 896.974955c6.258541-6.27696 10.256598-14.833847 10.256598-24.530696L907.077545 147.877979c0-9.118682-3.998057-18.235316-10.256598-24.532743l0 0c-6.27696-6.258541-14.815427-9.695826-24.511253-9.695826l0 0-723.784474 0 0 0c-9.68764 0-18.235316 3.437286-24.503067 9.695826l0 0c-6.26775 6.297426-9.686616 15.414061-9.686616 24.532743l0 724.567303c0 9.69685 3.419889 18.253736 9.686616 24.530696 6.26775 6.277984 14.815427 10.276041 24.503067 10.276041l0 0 723.784474 0 0 0C882.00552 907.250996 890.543987 903.252939 896.820947 896.974955L896.820947 896.974955zM148.524197 61.726853l723.784474 0 0 0c23.933085 0 45.586245 9.69685 60.97984 25.111934 15.396665 15.97381 25.073048 37.665855 25.073048 61.039191l0 724.567303c0 23.969924-9.676383 45.64355-25.073048 61.056588l0 0c-15.393595 15.395642-37.046754 25.092491-60.97984 25.092491l0 0-723.784474 0 0 0c-23.364127 0-45.016263-9.69685-60.971653-25.092491l0 0c-15.395642-15.414061-25.082258-37.086663-25.082258-61.056588L62.470285 147.877979c0-23.373337 9.686616-45.065382 25.082258-61.039191l0 0C103.507934 71.423703 125.161093 61.726853 148.524197 61.726853L148.524197 61.726853z" p-id="1260" fill="#1296db"></path><path d="M738.09797 681.007205l-192.238302-170.84404 192.238302-170.84404c9.711176-8.627495 10.579963-23.511483 1.979074-33.264615-8.606005-9.754155-23.511483-10.605545-33.267685-1.979074L510.429737 478.646358 314.049091 304.07646c-9.707083-8.627495-24.592095-7.776104-33.266661 1.979074-8.673543 9.753131-7.77508 24.592095 1.979074 33.264615l192.239326 170.84404L282.761504 681.007205c-9.709129 8.606005-10.607592 23.511483-1.979074 33.268708 4.672416 5.244444 11.112082 7.912204 17.623379 7.912204 5.565762 0 11.158131-1.979074 15.644305-5.934153l196.379623-174.568874 196.379623 174.568874c4.513804 4.003174 10.076496 5.934153 15.648398 5.934153 6.53074 0 12.969383-2.667759 17.619286-7.912204C748.677932 704.569854 747.856217 689.704284 738.09797 681.007205z" p-id="1261" fill="#1296db"></path></svg>