<?xml version="1.0" standalone="no"?><!DOCTYPE svg PUBLIC "-//W3C//DTD SVG 1.1//EN" "http://www.w3.org/Graphics/SVG/1.1/DTD/svg11.dtd"><svg t="1525256556275" class="icon" style="" viewBox="0 0 1024 1024" version="1.1" xmlns="http://www.w3.org/2000/svg" p-id="1915" xmlns:xlink="http://www.w3.org/1999/xlink" width="200" height="200"><defs><style type="text/css"></style></defs><path d="M512 0c282.304 0 512 229.696 512 512s-229.696 512-512 512-512-229.696-512-512 229.696-512 512-512z m0 960c247.04 0 448-200.96 448-448 0-246.976-200.96-448-448-448-246.976 0-448 201.024-448 448 0 247.04 201.024 448 448 448z" p-id="1916" fill="#e6e6e6"></path><path d="M512 209.984a32 32 0 0 1 32 32v447.872l156.224-197.696a32 32 0 1 1 50.24 39.68l-213.312 270.016a32.128 32.128 0 0 1-57.152-19.84V241.984a32 32 0 0 1 32-32z" p-id="1917" fill="#e6e6e6"></path><path d="M298.688 483.328a32 32 0 0 1 25.024 12.032l213.312 266.624a32.064 32.064 0 0 1-49.984 40L273.728 535.296a32 32 0 0 1 24.96-51.968z" p-id="1918" fill="#e6e6e6"></path></svg>